<svg xmlns="http://www.w3.org/2000/svg" viewBox="0 0 209.18 209.18"><defs><style>.cls-1{fill:#ffe466;}</style></defs><title>Fax</title><g id="Layer_2" data-name="Layer 2"><g id="Layer_1-2" data-name="Layer 1"><rect class="cls-1" x="172.07" y="104.59" width="13.5" height="13.5"/><path class="cls-1" d="M209.18,67.48H175.44V37.11a3.34,3.34,0,0,0-1-2.38L140.72,1a3.36,3.36,0,0,0-2.39-1H37.12a3.38,3.38,0,0,0-3.38,3.37V67.48H0v108H33.74v30.37a3.38,3.38,0,0,0,3.38,3.37h135a3.37,3.37,0,0,0,3.37-3.37V175.44h33.74Zm-67.48-56,22.22,22.22H141.7ZM40.49,6.75H135V37.11a3.37,3.37,0,0,0,3.37,3.38H168.7v27H40.49ZM168.7,202.43H40.49V141.7H168.7Zm33.73-33.73h-27V138.33a3.37,3.37,0,0,0-3.37-3.37H37.12a3.38,3.38,0,0,0-3.38,3.37V168.7h-27V74.23H202.43Z"/></g></g></svg>