<svg xmlns="http://www.w3.org/2000/svg" viewBox="0 0 157.69 190.44"><defs><style>.cls-1{fill:#ffe466;}</style></defs><title>Local</title><g id="Layer_2" data-name="Layer 2"><g id="Layer_1-2" data-name="Layer 1"><path class="cls-1" d="M134.62,23.1A78.88,78.88,0,0,0,23.06,134.66l55.78,55.78,55.78-55.78A79,79,0,0,0,134.62,23.1Zm-4.29,107.27L78.84,181.86,27.36,130.37a72.81,72.81,0,1,1,103,0Z"/><path class="cls-1" d="M78.84,45.51a33.37,33.37,0,1,0,33.38,33.37A33.41,33.41,0,0,0,78.84,45.51Zm0,60.68a27.31,27.31,0,1,1,27.31-27.31A27.34,27.34,0,0,1,78.84,106.19Z"/></g></g></svg>