<svg xmlns="http://www.w3.org/2000/svg" viewBox="0 0 221.27 249.43"><defs><style>.cls-1{fill:#ffe466;}</style></defs><title>Phone</title><g id="Layer_2" data-name="Layer 2"><g id="Layer_1-2" data-name="Layer 1"><path class="cls-1" d="M61,23V31A36.36,36.36,0,0,1,97.33,67.34h8.07A44.45,44.45,0,0,0,61,23Z"/><path class="cls-1" d="M120.28,67.6h8.07A67.6,67.6,0,0,0,60.76,0V8.07A59.53,59.53,0,0,1,120.28,67.6Z"/><path class="cls-1" d="M166.59,150.36,138.05,178.9,70.51,111.35,99,82.81,44.36,28.14,13,59.53a44.43,44.43,0,0,0,0,62.77L127.11,236.43a44.39,44.39,0,0,0,62.77,0L221.27,205Zm17.6,80.36a36.33,36.33,0,0,1-51.38,0L18.69,116.59a36.38,36.38,0,0,1,0-51.36L44.36,39.55,87.63,82.81,59.1,111.35l79,79,28.54-28.54L209.85,205Z"/></g></g></svg>